<?xml version="1.0" standalone="no"?>
<!DOCTYPE svg PUBLIC "-//W3C//DTD SVG 20010904//EN"
 "http://www.w3.org/TR/2001/REC-SVG-20010904/DTD/svg10.dtd">
<svg version="1.0" xmlns="http://www.w3.org/2000/svg"
 width="982.000000pt" height="984.000000pt" viewBox="0 0 982.000000 984.000000"
 preserveAspectRatio="xMidYMid meet">
<metadata>
Created by potrace 1.15, written by Peter Selinger 2001-2017
</metadata>
<g transform="translate(0.000000,984.000000) scale(0.100000,-0.100000)"
fill="#000000" stroke="none">
<path d="M4680 9824 c-130 -17 -212 -38 -296 -79 -203 -98 -339 -298 -373
-547 -6 -43 -14 -214 -17 -380 -4 -203 -11 -324 -20 -367 -33 -147 -143 -283
-291 -359 -197 -102 -391 -108 -567 -20 -86 43 -117 69 -336 282 -218 211
-293 272 -395 321 -106 51 -185 69 -300 69 -222 0 -396 -94 -655 -355 -295
-296 -395 -575 -304 -846 9 -26 35 -84 57 -128 37 -71 68 -107 277 -320 130
-132 251 -262 269 -288 112 -164 136 -334 76 -524 -66 -208 -214 -349 -430
-409 -48 -13 -131 -18 -410 -24 -268 -6 -365 -12 -413 -24 -265 -67 -441 -242
-514 -511 -19 -73 -21 -106 -22 -365 -1 -372 16 -459 120 -620 49 -76 97 -124
175 -173 134 -85 226 -105 544 -117 426 -17 534 -32 655 -96 137 -72 233 -190
286 -350 25 -76 29 -104 29 -199 0 -215 -39 -281 -369 -615 -221 -224 -246
-252 -285 -329 -60 -115 -81 -189 -88 -303 -7 -115 7 -198 47 -283 84 -175
487 -582 680 -684 91 -49 153 -64 260 -64 145 -1 264 38 400 128 38 25 174
148 302 273 239 232 298 278 407 316 78 27 217 32 306 12 88 -21 214 -82 283
-137 74 -58 146 -165 179 -263 28 -81 28 -82 28 -376 l0 -295 48 -140 c98
-287 179 -413 319 -492 260 -149 577 -174 928 -72 246 71 381 168 458 331 73
151 77 181 78 548 1 333 5 373 44 491 45 134 140 250 277 339 l74 49 -118 97
c-65 54 -163 141 -218 194 -194 188 -261 204 -600 149 -118 -20 -178 -23 -390
-24 -255 0 -334 7 -530 46 -759 152 -1435 650 -1813 1334 -240 437 -358 966
-323 1450 52 707 329 1320 802 1781 373 361 819 592 1359 703 313 64 768 71
1070 15 634 -116 1223 -490 1635 -1039 269 -358 435 -762 496 -1205 20 -143
18 -475 -5 -655 -31 -249 -12 -415 65 -571 54 -110 126 -194 268 -313 67 -56
122 -101 124 -101 2 0 44 39 93 88 101 99 183 151 299 189 79 26 86 27 435 33
377 7 395 9 529 64 186 76 340 252 390 448 51 198 54 599 6 788 -52 207 -171
359 -351 446 -145 70 -188 76 -589 84 -357 6 -361 7 -440 34 -155 53 -277 161
-350 311 -110 224 -80 447 90 670 29 39 137 154 239 256 242 244 303 336 342
519 29 135 9 272 -61 415 -54 112 -139 218 -292 365 -233 225 -442 331 -653
333 -107 0 -174 -15 -277 -64 -112 -53 -202 -128 -378 -313 -261 -275 -376
-348 -565 -362 -230 -17 -497 134 -593 336 -62 132 -69 184 -77 575 -6 278
-11 362 -24 407 -57 199 -184 357 -351 438 -123 60 -192 71 -480 75 -137 2
-266 1 -285 -1z"/>
<path d="M4731 6925 c-52 -8 -143 -27 -202 -41 l-108 -27 21 -31 c12 -17 198
-206 413 -421 260 -259 410 -415 445 -465 149 -215 217 -453 191 -670 -29
-235 -138 -438 -339 -632 -138 -133 -270 -213 -439 -265 -81 -25 -102 -27
-253 -27 -151 0 -173 2 -253 27 -107 33 -236 97 -337 167 -83 58 -296 269
-639 633 -123 130 -229 237 -235 237 -6 0 -27 -11 -47 -24 -34 -23 -36 -29
-47 -108 -58 -412 -23 -780 104 -1101 214 -543 729 -1024 1290 -1207 192 -63
324 -83 549 -84 251 -1 412 25 699 114 71 22 119 30 171 30 136 0 87 42 1065
-931 481 -480 912 -904 956 -943 95 -83 167 -128 262 -164 60 -23 81 -26 197
-26 109 0 140 4 190 22 103 39 195 101 290 196 144 145 204 268 212 436 8 147
-34 279 -131 414 -43 60 -735 754 -1523 1527 -329 324 -396 394 -417 440 -35
74 -33 125 10 261 91 289 119 484 111 753 -9 303 -66 532 -197 800 -269 549
-819 977 -1405 1096 -142 28 -460 36 -604 14z m3554 -4949 c99 -26 172 -80
209 -155 31 -62 37 -91 37 -178 0 -90 -31 -166 -94 -231 -168 -174 -451 -125
-564 98 -58 116 -26 289 72 379 95 88 219 120 340 87z"/>
</g>
</svg>
